# xmcd
#
# Track frame offsets: 
#        150
#        17184
#        36934
#        56609
#        80381
#        97717
#        115492
#        140063
#
# Disc length: 2154 seconds
#
# Revision: 0
# Processed by: cddbd v1.5.2PL0 Copyright (c) Steve Scherf et al.
# Submitted via: ExactAudioCopy v1.0b3
#
DISCID=65086808
DTITLE=光収容 - 日々の足音
DYEAR=2013
DGENRE=Rock
TTITLE0=未遂系フレーバー
TTITLE1=忘却物取り扱いについて
TTITLE2=せかいのみかた
TTITLE3=過去の足音（inst）
TTITLE4=ヒビワレ
TTITLE5=昼の星座
TTITLE6=睡眠拾弐時間
TTITLE7=再起動
EXTD=
EXTT0=
EXTT1=
EXTT2=
EXTT3=
EXTT4=
EXTT5=
EXTT6=
EXTT7=
PLAYORDER=
